<svg width="74" height="16" viewBox="0 0 74 16" fill="none" xmlns="http://www.w3.org/2000/svg">
<path d="M9.94 15.2C9.72667 15.2 9.62 15.12 9.62 14.96C9.62 14.8267 9.7 14.7 9.86 14.58C10.1533 14.5667 10.3867 14.5467 10.56 14.52C10.7467 14.48 10.88 14.44 10.96 14.4C11.0533 14.36 11.1133 14.32 11.14 14.28C11.1667 14.2267 11.18 14.18 11.18 14.14C11.1267 13.9933 10.98 13.56 10.74 12.84C10.5133 12.1067 10.1867 11.1933 9.76 10.1C9.72 9.99333 9.66 9.93333 9.58 9.92C9.5 9.89333 9.40667 9.88 9.3 9.88H4.8C4.72 9.88 4.63333 9.9 4.54 9.94C4.46 9.96667 4.39333 10.0533 4.34 10.2C4.12667 10.7467 3.94 11.22 3.78 11.62C3.63333 12.02 3.50667 12.3733 3.4 12.68C3.29333 12.9733 3.20667 13.2267 3.14 13.44C3.08667 13.6533 3.06 13.84 3.06 14C3.06 14.0533 3.08 14.1067 3.12 14.16C3.16 14.2133 3.24667 14.2667 3.38 14.32C3.51333 14.36 3.69333 14.4067 3.92 14.46C4.16 14.5133 4.47333 14.56 4.86 14.6C5.03333 14.68 5.12 14.7867 5.12 14.92C5.12 15.1067 5 15.2 4.76 15.2H0.46C0.246667 15.2 0.14 15.1133 0.14 14.94C0.14 14.7933 0.213333 14.6733 0.36 14.58C0.88 14.5133 1.25333 14.4133 1.48 14.28C1.70667 14.1333 1.89333 13.9133 2.04 13.62C2.16 13.38 2.36667 12.9 2.66 12.18C2.95333 11.46 3.3 10.5933 3.7 9.58C4.1 8.56667 4.53333 7.45333 5 6.24C5.46667 5.01333 5.94 3.78 6.42 2.54C6.43333 2.47333 6.44667 2.4 6.46 2.32C6.47333 2.24 6.48 2.16667 6.48 2.1C6.48 1.95333 6.52 1.84667 6.6 1.78C6.69333 1.71333 6.77333 1.66667 6.84 1.64C6.96 1.61333 7.08667 1.52667 7.22 1.38C7.36667 1.22 7.46667 1.06667 7.52 0.92C7.56 0.853332 7.60667 0.793332 7.66 0.74C7.71333 0.673333 7.79333 0.64 7.9 0.64C7.96667 0.64 8.03333 0.666666 8.1 0.719999C8.18 0.773332 8.23333 0.866666 8.26 0.999999C8.26 1.04 8.32667 1.25333 8.46 1.64C8.60667 2.01333 8.78667 2.49333 9 3.08C9.22667 3.66667 9.48 4.32667 9.76 5.06C10.04 5.79333 10.3267 6.54 10.62 7.3C10.9133 8.06 11.2 8.80667 11.48 9.54C11.76 10.26 12.0067 10.9067 12.22 11.48C12.4467 12.04 12.6333 12.4933 12.78 12.84L12.98 13.38C13.1533 13.7667 13.36 14.06 13.6 14.26C13.8533 14.46 14.1667 14.56 14.54 14.56H14.6C14.7467 14.6667 14.82 14.7933 14.82 14.94C14.82 15.1133 14.72 15.2 14.52 15.2H9.94ZM7.12 2.98L4.8 8.92H9.36L7.12 2.98ZM21.6409 15.2C21.4409 15.2 21.3409 15.1333 21.3409 15C21.3409 14.8667 21.4143 14.76 21.5609 14.68C22.0009 14.6533 22.2943 14.6 22.4409 14.52C22.6009 14.44 22.6943 14.28 22.7209 14.04C22.7343 13.8267 22.7476 13.6267 22.7609 13.44C22.7743 13.24 22.7809 13.0467 22.7809 12.86C22.7943 12.66 22.8009 12.4467 22.8009 12.22C22.8009 11.9933 22.8009 11.7333 22.8009 11.44V10.06C22.8009 9.58 22.7876 9.13333 22.7609 8.72C22.7343 8.29333 22.6609 7.92667 22.5409 7.62C22.4343 7.31333 22.2609 7.07333 22.0209 6.9C21.7809 6.72667 21.4409 6.64 21.0009 6.64C20.6009 6.64 20.2476 6.71333 19.9409 6.86C19.6343 7.00667 19.3676 7.20667 19.1409 7.46C18.9276 7.7 18.7609 7.98 18.6409 8.3C18.5343 8.62 18.4809 8.95333 18.4809 9.3V11.72V12.58C18.4809 13.0467 18.4876 13.42 18.5009 13.7C18.5143 13.9667 18.5609 14.18 18.6409 14.34C18.7209 14.4867 18.8476 14.5867 19.0209 14.64C19.2076 14.68 19.4676 14.7 19.8009 14.7C19.8943 14.78 19.9409 14.8733 19.9409 14.98C19.9409 15.1267 19.8676 15.2 19.7209 15.2H15.7009C15.5276 15.2 15.4409 15.1267 15.4409 14.98C15.4409 14.8867 15.5009 14.7867 15.6209 14.68C15.8743 14.6667 16.0743 14.64 16.2209 14.6C16.3676 14.56 16.4809 14.52 16.5609 14.48C16.6409 14.4267 16.6943 14.3667 16.7209 14.3C16.7476 14.22 16.7609 14.1267 16.7609 14.02C16.8009 13.4867 16.8276 12.88 16.8409 12.2C16.8543 11.5067 16.8609 10.72 16.8609 9.84V7.9C16.8609 7.68667 16.8476 7.52 16.8209 7.4C16.8076 7.26667 16.7676 7.16 16.7009 7.08C16.6343 7 16.5343 6.93333 16.4009 6.88C16.2809 6.82667 16.1143 6.77333 15.9009 6.72C15.7809 6.66667 15.7209 6.58667 15.7209 6.48C15.7209 6.37333 15.7876 6.31333 15.9209 6.3C16.3209 6.19333 16.7076 6.08 17.0809 5.96C17.4676 5.82667 17.7809 5.71333 18.0209 5.62C18.1009 5.59333 18.1543 5.58 18.1809 5.58C18.3276 5.58 18.4009 5.69333 18.4009 5.92L18.3809 7.48C18.5276 7.24 18.7009 7.01333 18.9009 6.8C19.1143 6.58667 19.3476 6.39333 19.6009 6.22C19.8543 6.04667 20.1276 5.91333 20.4209 5.82C20.7143 5.71333 21.0209 5.66 21.3409 5.66C21.8343 5.66 22.2543 5.72667 22.6009 5.86C22.9476 5.99333 23.2343 6.17333 23.4609 6.4C23.7009 6.61333 23.8809 6.86 24.0009 7.14C24.1343 7.40667 24.2343 7.68 24.3009 7.96C24.3676 8.22667 24.4076 8.48667 24.4209 8.74C24.4343 8.99333 24.4409 9.20667 24.4409 9.38V11.72V12.76C24.4409 13.2 24.4476 13.5467 24.4609 13.8C24.4876 14.0533 24.5409 14.2467 24.6209 14.38C24.7009 14.5133 24.8276 14.6 25.0009 14.64C25.1743 14.6667 25.4209 14.68 25.7409 14.68C25.8609 14.76 25.9209 14.86 25.9209 14.98C25.9209 15.1267 25.8343 15.2 25.6609 15.2H21.6409ZM29.0691 3.46C28.7224 3.46 28.4291 3.33333 28.1891 3.08C27.9624 2.82667 27.8491 2.52667 27.8491 2.18C27.8491 1.83333 27.9624 1.54 28.1891 1.3C28.4291 1.04667 28.7224 0.92 29.0691 0.92C29.4157 0.92 29.7024 1.04667 29.9291 1.3C30.1691 1.54 30.2891 1.83333 30.2891 2.18C30.2891 2.52667 30.1691 2.82667 29.9291 3.08C29.7024 3.33333 29.4157 3.46 29.0691 3.46ZM27.1291 15.2C26.9557 15.2 26.8691 15.1333 26.8691 15C26.8691 14.88 26.9357 14.7733 27.0691 14.68C27.5757 14.64 27.8957 14.5733 28.0291 14.48C28.1624 14.3867 28.2424 14.24 28.2691 14.04C28.3091 13.7467 28.3291 13.4467 28.3291 13.14C28.3424 12.82 28.3491 12.42 28.3491 11.94V7.86C28.3491 7.64667 28.3424 7.48 28.3291 7.36C28.3157 7.22667 28.2757 7.12 28.2091 7.04C28.1557 6.96 28.0624 6.9 27.9291 6.86C27.8091 6.80667 27.6424 6.74667 27.4291 6.68C27.3091 6.64 27.2491 6.57333 27.2491 6.48C27.2491 6.38667 27.3091 6.32 27.4291 6.28C27.8424 6.18667 28.2424 6.07333 28.6291 5.94C29.0157 5.80667 29.3691 5.68 29.6891 5.56C29.7691 5.53333 29.8157 5.52 29.8291 5.52C29.9624 5.52 30.0291 5.62 30.0291 5.82V5.9C30.0291 6.06 30.0224 6.27333 30.0091 6.54C29.9957 6.80667 29.9824 7.1 29.9691 7.42C29.9557 7.72667 29.9424 8.04 29.9291 8.36C29.9291 8.68 29.9291 8.98 29.9291 9.26V11.66V12.7C29.9291 13.1267 29.9357 13.4733 29.9491 13.74C29.9624 13.9933 30.0091 14.1933 30.0891 14.34C30.1691 14.4733 30.2891 14.5667 30.4491 14.62C30.6224 14.66 30.8691 14.68 31.1891 14.68C31.2957 14.7867 31.3491 14.8867 31.3491 14.98C31.3491 15.1267 31.2691 15.2 31.1091 15.2H27.1291ZM44.2941 15.2C44.1207 15.2 44.0341 15.1267 44.0341 14.98C44.0341 14.8867 44.0941 14.7867 44.2141 14.68C44.4674 14.6533 44.6674 14.6267 44.8141 14.6C44.9741 14.56 45.0941 14.5133 45.1741 14.46C45.2541 14.4067 45.3074 14.3467 45.3341 14.28C45.3607 14.2133 45.3807 14.1267 45.3941 14.02C45.4341 13.4867 45.4541 12.9933 45.4541 12.54C45.4674 12.0867 45.4741 11.64 45.4741 11.2V10.22C45.4741 9.67333 45.4541 9.18 45.4141 8.74C45.3874 8.28667 45.3074 7.90667 45.1741 7.6C45.0541 7.28 44.8741 7.04 44.6341 6.88C44.3941 6.70667 44.0741 6.62 43.6741 6.62C43.2741 6.62 42.9207 6.7 42.6141 6.86C42.3207 7.00667 42.0741 7.20667 41.8741 7.46C41.6741 7.71333 41.5207 8 41.4141 8.32C41.3207 8.64 41.2741 8.96667 41.2741 9.3V12.14C41.2741 12.7267 41.2807 13.1867 41.2941 13.52C41.3074 13.8533 41.3474 14.1067 41.4141 14.28C41.4941 14.4533 41.6141 14.5667 41.7741 14.62C41.9341 14.66 42.1607 14.68 42.4541 14.68C42.5607 14.7467 42.6141 14.84 42.6141 14.96C42.6141 15.12 42.5341 15.2 42.3741 15.2H38.6341C38.4474 15.2 38.3541 15.1267 38.3541 14.98C38.3541 14.8733 38.4207 14.7733 38.5541 14.68C38.7807 14.6667 38.9607 14.6467 39.0941 14.62C39.2274 14.58 39.3274 14.5333 39.3941 14.48C39.4741 14.4267 39.5274 14.36 39.5541 14.28C39.5807 14.2 39.6007 14.1067 39.6141 14C39.6274 13.7333 39.6407 13.4933 39.6541 13.28C39.6674 13.0667 39.6741 12.86 39.6741 12.66C39.6874 12.4467 39.6941 12.24 39.6941 12.04C39.6941 11.8267 39.6941 11.6 39.6941 11.36V9.48C39.6941 8.4 39.5341 7.66 39.2141 7.26C38.8941 6.84667 38.4541 6.64 37.8941 6.64C37.5074 6.64 37.1674 6.71333 36.8741 6.86C36.5807 7.00667 36.3274 7.2 36.1141 7.44C35.9007 7.68 35.7407 7.96 35.6341 8.28C35.5274 8.6 35.4741 8.93333 35.4741 9.28V11.62C35.4741 12.38 35.4807 12.9667 35.4941 13.38C35.5074 13.7933 35.5541 14.1 35.6341 14.3C35.7141 14.4867 35.8407 14.6 36.0141 14.64C36.2007 14.6667 36.4607 14.68 36.7941 14.68C36.9007 14.7867 36.9541 14.8867 36.9541 14.98C36.9541 15.1267 36.8741 15.2 36.7141 15.2H32.6941C32.5207 15.2 32.4341 15.1267 32.4341 14.98C32.4341 14.86 32.4941 14.76 32.6141 14.68C33.0807 14.64 33.3807 14.58 33.5141 14.5C33.6474 14.42 33.7274 14.2667 33.7541 14.04C33.7941 13.7467 33.8207 13.44 33.8341 13.12C33.8474 12.7867 33.8541 12.38 33.8541 11.9V7.88C33.8541 7.66667 33.8474 7.49333 33.8341 7.36C33.8207 7.22667 33.7807 7.12 33.7141 7.04C33.6474 6.96 33.5474 6.9 33.4141 6.86C33.2941 6.80667 33.1207 6.74667 32.8941 6.68C32.7874 6.64 32.7341 6.57333 32.7341 6.48C32.7341 6.38667 32.7941 6.32 32.9141 6.28C33.3141 6.18667 33.7007 6.08 34.0741 5.96C34.4474 5.82667 34.7674 5.70667 35.0341 5.6C35.0607 5.58667 35.1007 5.58 35.1541 5.58C35.2474 5.58 35.3074 5.62667 35.3341 5.72C35.3607 5.8 35.3741 5.9 35.3741 6.02L35.3541 7.44C35.4874 7.22667 35.6541 7.01333 35.8541 6.8C36.0674 6.58667 36.3007 6.4 36.5541 6.24C36.8074 6.06667 37.0741 5.92667 37.3541 5.82C37.6341 5.71333 37.9274 5.66 38.2341 5.66C38.6607 5.66 39.0274 5.71333 39.3341 5.82C39.6541 5.91333 39.9274 6.04667 40.1541 6.22C40.3807 6.39333 40.5674 6.58667 40.7141 6.8C40.8607 7.01333 40.9807 7.24 41.0741 7.48C41.3807 6.94667 41.8007 6.51333 42.3341 6.18C42.8674 5.83333 43.4141 5.66 43.9741 5.66C44.6007 5.66 45.1141 5.76667 45.5141 5.98C45.9274 6.18 46.2474 6.45333 46.4741 6.8C46.7141 7.14667 46.8741 7.55333 46.9541 8.02C47.0474 8.48667 47.0941 8.98667 47.0941 9.52V11.66V12.72C47.0941 13.1867 47.1007 13.5467 47.1141 13.8C47.1407 14.0533 47.1941 14.2467 47.2741 14.38C47.3541 14.5 47.4807 14.58 47.6541 14.62C47.8274 14.6467 48.0741 14.6667 48.3941 14.68C48.5141 14.7867 48.5741 14.8933 48.5741 15C48.5741 15.1333 48.4941 15.2 48.3341 15.2H44.2941ZM51.8263 9.86C51.7596 9.86 51.7063 9.88 51.6663 9.92C51.6263 9.94667 51.6063 10.0267 51.6063 10.16C51.6063 11.08 51.7129 11.82 51.9263 12.38C52.1529 12.94 52.4329 13.3733 52.7663 13.68C53.0996 13.9867 53.4463 14.1933 53.8063 14.3C54.1796 14.3933 54.5196 14.44 54.8263 14.44C55.3996 14.44 55.9063 14.34 56.3463 14.14C56.7863 13.9267 57.1463 13.68 57.4263 13.4C57.4663 13.36 57.5129 13.34 57.5663 13.34C57.6463 13.34 57.7196 13.3867 57.7863 13.48C57.8663 13.5733 57.9063 13.6667 57.9063 13.76C57.9063 13.8 57.8996 13.8267 57.8863 13.84C57.7529 14.0133 57.5796 14.1933 57.3663 14.38C57.1663 14.5667 56.9196 14.74 56.6263 14.9C56.3329 15.06 55.9929 15.1933 55.6063 15.3C55.2329 15.4067 54.8063 15.46 54.3263 15.46C53.7263 15.46 53.1596 15.36 52.6263 15.16C52.0929 14.96 51.6196 14.6667 51.2063 14.28C50.8063 13.88 50.4863 13.3867 50.2463 12.8C50.0063 12.2 49.8863 11.5 49.8863 10.7C49.8863 10.0867 49.9863 9.48 50.1863 8.88C50.3863 8.26667 50.6729 7.72 51.0463 7.24C51.4196 6.76 51.8796 6.37333 52.4263 6.08C52.9729 5.77333 53.5863 5.62 54.2663 5.62C54.8129 5.62 55.3129 5.72667 55.7663 5.94C56.2329 6.15333 56.6263 6.44 56.9463 6.8C57.2796 7.14667 57.5396 7.54667 57.7263 8C57.9129 8.44 58.0063 8.88667 58.0063 9.34C58.0063 9.68667 57.8796 9.86 57.6263 9.86H51.8263ZM56.2863 9.16C56.3529 9.16 56.3929 9.14 56.4063 9.1C56.4196 9.04667 56.4263 9.00667 56.4263 8.98C56.4263 8.58 56.3663 8.21333 56.2463 7.88C56.1263 7.54667 55.9663 7.26 55.7663 7.02C55.5663 6.78 55.3329 6.59333 55.0663 6.46C54.8129 6.32667 54.5529 6.26 54.2863 6.26C53.8196 6.26 53.4263 6.38667 53.1063 6.64C52.7863 6.89333 52.5263 7.18667 52.3263 7.52C52.1263 7.84 51.9796 8.16 51.8863 8.48C51.7929 8.78667 51.7463 9 51.7463 9.12C51.7463 9.13333 51.7529 9.14667 51.7663 9.16C51.7796 9.16 51.8263 9.16 51.9063 9.16H56.2863ZM73.2095 1.12C73.3429 1.12 73.4295 1.14667 73.4695 1.2C73.5229 1.24 73.5495 1.29333 73.5495 1.36C73.5495 1.44 73.5229 1.52 73.4695 1.6C73.4295 1.66667 73.3762 1.71333 73.3095 1.74C73.0162 1.78 72.7762 1.82667 72.5895 1.88C72.4029 1.93333 72.2429 2.01333 72.1095 2.12C71.9895 2.21333 71.8895 2.33333 71.8095 2.48C71.7295 2.61333 71.6495 2.78 71.5695 2.98C71.4362 3.32667 71.2562 3.77333 71.0295 4.32C70.8162 4.85333 70.5762 5.46 70.3095 6.14C70.0562 6.80667 69.7762 7.52667 69.4695 8.3C69.1629 9.06 68.8495 9.83333 68.5295 10.62C68.2229 11.3933 67.9095 12.1667 67.5895 12.94C67.2829 13.7 66.9829 14.4133 66.6895 15.08C66.5829 15.32 66.4895 15.4667 66.4095 15.52C66.3295 15.5733 66.2229 15.6 66.0895 15.6C65.9429 15.6 65.8429 15.5467 65.7895 15.44C65.7495 15.3333 65.7029 15.2133 65.6495 15.08C65.1829 13.9333 64.7229 12.8 64.2695 11.68C63.8295 10.5467 63.4029 9.46667 62.9895 8.44C62.5762 7.41333 62.1895 6.46 61.8295 5.58C61.4695 4.68667 61.1429 3.9 60.8495 3.22C60.7429 2.96667 60.6362 2.74667 60.5295 2.56C60.4362 2.37333 60.3229 2.22 60.1895 2.1C60.0695 1.98 59.9162 1.89333 59.7295 1.84C59.5562 1.77333 59.3429 1.74 59.0895 1.74C58.9429 1.63333 58.8695 1.52 58.8695 1.4C58.8695 1.21333 58.9762 1.12 59.1895 1.12H63.7295C63.9429 1.12 64.0495 1.20667 64.0495 1.38C64.0495 1.55333 63.9762 1.67333 63.8295 1.74C63.3495 1.79333 63.0229 1.84 62.8495 1.88C62.6762 1.92 62.5895 2.02667 62.5895 2.2C62.5895 2.24 62.6495 2.43333 62.7695 2.78C62.8895 3.12667 63.0495 3.58 63.2495 4.14C63.4629 4.7 63.7095 5.34 63.9895 6.06C64.2695 6.76667 64.5562 7.50667 64.8495 8.28C65.1562 9.05333 65.4695 9.83333 65.7895 10.62C66.1095 11.3933 66.4162 12.12 66.7095 12.8C67.0829 11.9067 67.4495 11 67.8095 10.08C68.1695 9.14667 68.5029 8.26667 68.8095 7.44C69.1295 6.6 69.4095 5.85333 69.6495 5.2C69.9029 4.53333 70.1029 4.00667 70.2495 3.62C70.3295 3.42 70.3895 3.22667 70.4295 3.04C70.4695 2.85333 70.4895 2.69333 70.4895 2.56C70.4895 2.28 70.3562 2.08667 70.0895 1.98C69.8362 1.86 69.3629 1.78 68.6695 1.74C68.5095 1.64667 68.4295 1.52 68.4295 1.36C68.4295 1.29333 68.4562 1.24 68.5095 1.2C68.5629 1.14667 68.6495 1.12 68.7695 1.12H73.2095Z" fill="white"/>
</svg>
